<svg xmlns="http://www.w3.org/2000/svg" width="1920" height="1080"><path d="M1000,519L1175,495L1084,313Z" fill="#4eb3c2" stroke="#4eb3c2" stroke-width="1.51"/><path d="M1084,313L969,300L1000,519Z" fill="#5bbbc0" stroke="#5bbbc0" stroke-width="1.51"/><path d="M969,300L838,389L1000,519Z" fill="#5cbec1" stroke="#5cbec1" stroke-width="1.51"/><path d="M1175,495L1323,393L1084,313Z" fill="#51afc0" stroke="#51afc0" stroke-width="1.51"/><path d="M1000,519L1200,704L1175,495Z" fill="#38a9c3" stroke="#38a9c3" stroke-width="1.51"/><path d="M1175,495L1369,563L1323,393Z" fill="#40a5c1" stroke="#40a5c1" stroke-width="1.51"/><path d="M1001,757L1200,704L1000,519Z" fill="#35a5c3" stroke="#35a5c3" stroke-width="1.51"/><path d="M1200,704L1369,563L1175,495Z" fill="#30a1c2" stroke="#30a1c2" stroke-width="1.51"/><path d="M1084,313L974,95L969,300Z" fill="#75c4be" stroke="#75c4be" stroke-width="1.51"/><path d="M969,300L813,217L838,389Z" fill="#70c5be" stroke="#70c5be" stroke-width="1.51"/><path d="M1280,98L1139,114L1084,313Z" fill="#7dbebc" stroke="#7dbebc" stroke-width="1.51"/><path d="M788,804L1001,757L1000,519Z" fill="#3caac2" stroke="#3caac2" stroke-width="1.51"/><path d="M974,95L813,217L969,300Z" fill="#80cabd" stroke="#80cabd" stroke-width="1.51"/><path d="M1139,114L974,95L1084,313Z" fill="#80c4bd" stroke="#80c4bd" stroke-width="1.51"/><path d="M1200,704L1333,689L1369,563Z" fill="#2a98c0" stroke="#2a98c0" stroke-width="1.51"/><path d="M1312,909L1333,689L1200,704Z" fill="#1e8fbf" stroke="#1e8fbf" stroke-width="1.51"/><path d="M838,389L713,503L1000,519Z" fill="#5abdc1" stroke="#5abdc1" stroke-width="1.51"/><path d="M627,192L713,503L838,389Z" fill="#74c8bd" stroke="#74c8bd" stroke-width="1.51"/><path d="M1323,393L1280,98L1084,313Z" fill="#68b4be" stroke="#68b4be" stroke-width="1.51"/><path d="M1139,114L1112,-72L974,95Z" fill="#92cabc" stroke="#92cabc" stroke-width="1.51"/><path d="M1333,7L1280,98L1579,145Z" fill="#87b1b7" stroke="#87b1b7" stroke-width="1.51"/><path d="M713,503L788,804L1000,519Z" fill="#4db4c2" stroke="#4db4c2" stroke-width="1.51"/><path d="M1001,757L1193,904L1200,704Z" fill="#2a96c0" stroke="#2a96c0" stroke-width="1.51"/><path d="M1010,943L1193,904L1001,757Z" fill="#3090bc" stroke="#3090bc" stroke-width="1.51"/><path d="M1280,98L1112,-72L1139,114Z" fill="#8fc3bb" stroke="#8fc3bb" stroke-width="1.51"/><path d="M1579,145L1280,98L1323,393Z" fill="#72abb9" stroke="#72abb9" stroke-width="1.51"/><path d="M1369,563L1578,404L1323,393Z" fill="#479bbb" stroke="#479bbb" stroke-width="1.51"/><path d="M1604,610L1578,404L1369,563Z" fill="#3a90b9" stroke="#3a90b9" stroke-width="1.51"/><path d="M1604,610L1369,563L1333,689Z" fill="#2f8fbc" stroke="#2f8fbc" stroke-width="1.51"/><path d="M1333,7L1112,-72L1280,98Z" fill="#91c1bb" stroke="#91c1bb" stroke-width="1.51"/><path d="M755,-34L627,192L813,217Z" fill="#9cd6ba" stroke="#9cd6ba" stroke-width="1.51"/><path d="M813,217L627,192L838,389Z" fill="#81ccbc" stroke="#81ccbc" stroke-width="1.51"/><path d="M605,784L774,862L788,804Z" fill="#53a4bc" stroke="#53a4bc" stroke-width="1.51"/><path d="M755,-34L813,217L974,95Z" fill="#99d4bb" stroke="#99d4bb" stroke-width="1.51"/><path d="M788,804L1010,943L1001,757Z" fill="#399bbe" stroke="#399bbe" stroke-width="1.51"/><path d="M788,804L774,862L1010,943Z" fill="#4499bb" stroke="#4499bb" stroke-width="1.51"/><path d="M605,784L788,804L713,503Z" fill="#58b2bf" stroke="#58b2bf" stroke-width="1.51"/><path d="M1193,904L1312,909L1200,704Z" fill="#248abc" stroke="#248abc" stroke-width="1.51"/><path d="M1347,1149L1312,909L1193,904Z" fill="#2476b3" stroke="#2476b3" stroke-width="1.51"/><path d="M1597,773L1604,610L1333,689Z" fill="#2a83b8" stroke="#2a83b8" stroke-width="1.51"/><path d="M910,-118L755,-34L974,95Z" fill="#a1d6bb" stroke="#a1d6bb" stroke-width="1.51"/><path d="M506,341L531,594L713,503Z" fill="#75c7be" stroke="#75c7be" stroke-width="1.51"/><path d="M1112,-72L910,-118L974,95Z" fill="#9dd1bc" stroke="#9dd1bc" stroke-width="1.51"/><path d="M1729,360L1579,145L1578,404Z" fill="#5f92b1" stroke="#5f92b1" stroke-width="1.51"/><path d="M1578,404L1579,145L1323,393Z" fill="#5d9db6" stroke="#5d9db6" stroke-width="1.51"/><path d="M627,192L506,341L713,503Z" fill="#80cdbb" stroke="#80cdbb" stroke-width="1.51"/><path d="M436,338L506,341L390,204Z" fill="#9cd7b9" stroke="#9cd7b9" stroke-width="1.51"/><path d="M531,594L605,784L713,503Z" fill="#65bbbf" stroke="#65bbbf" stroke-width="1.51"/><path d="M1312,909L1597,773L1333,689Z" fill="#2282ba" stroke="#2282ba" stroke-width="1.51"/><path d="M506,341L436,338L531,594Z" fill="#87cebc" stroke="#87cebc" stroke-width="1.51"/><path d="M390,204L506,341L627,192Z" fill="#9dd8b9" stroke="#9dd8b9" stroke-width="1.51"/><path d="M1112,-72L1102,-217L910,-118Z" fill="#a4d2bd" stroke="#a4d2bd" stroke-width="1.51"/><path d="M1326,-171L1102,-217L1112,-72Z" fill="#a1c9be" stroke="#a1c9be" stroke-width="1.51"/><path d="M1326,-171L1112,-72L1333,7Z" fill="#9ac2bb" stroke="#9ac2bb" stroke-width="1.51"/><path d="M1493,-100L1326,-171L1333,7Z" fill="#99b8b7" stroke="#99b8b7" stroke-width="1.51"/><path d="M1763,523L1729,360L1578,404Z" fill="#4d88b2" stroke="#4d88b2" stroke-width="1.51"/><path d="M1597,773L1670,705L1604,610Z" fill="#2b7ab4" stroke="#2b7ab4" stroke-width="1.51"/><path d="M1763,523L1578,404L1604,610Z" fill="#3e87b4" stroke="#3e87b4" stroke-width="1.51"/><path d="M1312,909L1563,979L1597,773Z" fill="#2370b1" stroke="#2370b1" stroke-width="1.51"/><path d="M1010,943L1081,1091L1193,904Z" fill="#3081b5" stroke="#3081b5" stroke-width="1.51"/><path d="M897,1147L1081,1091L1010,943Z" fill="#397fb2" stroke="#397fb2" stroke-width="1.51"/><path d="M897,1147L1010,943L774,862Z" fill="#418bb5" stroke="#418bb5" stroke-width="1.51"/><path d="M1579,145L1493,-100L1333,7Z" fill="#8daeb4" stroke="#8daeb4" stroke-width="1.51"/><path d="M1703,-97L1493,-100L1579,145Z" fill="#8fa4af" stroke="#8fa4af" stroke-width="1.51"/><path d="M910,-118L792,-258L755,-34Z" fill="#b0dcbb" stroke="#b0dcbb" stroke-width="1.51"/><path d="M1102,-217L948,-241L910,-118Z" fill="#a7d6c2" stroke="#a7d6c2" stroke-width="1.51"/><path d="M1670,705L1763,523L1604,610Z" fill="#347eb3" stroke="#347eb3" stroke-width="1.51"/><path d="M512,-34L627,192L755,-34Z" fill="#acddb7" stroke="#acddb7" stroke-width="1.51"/><path d="M512,-34L390,204L627,192Z" fill="#b1e0b7" stroke="#b1e0b7" stroke-width="1.51"/><path d="M508,-236L512,-34L755,-34Z" fill="#bee4b6" stroke="#bee4b6" stroke-width="1.51"/><path d="M1597,773L1739,976L1670,705Z" fill="#266baf" stroke="#266baf" stroke-width="1.51"/><path d="M1670,705L1859,563L1763,523Z" fill="#3878b0" stroke="#3878b0" stroke-width="1.51"/><path d="M1499,1131L1563,979L1312,909Z" fill="#2466ac" stroke="#2466ac" stroke-width="1.51"/><path d="M732,1150L897,1147L774,862Z" fill="#4d87b1" stroke="#4d87b1" stroke-width="1.51"/><path d="M1081,1091L1347,1149L1193,904Z" fill="#2c74b2" stroke="#2c74b2" stroke-width="1.51"/><path d="M948,-241L792,-258L910,-118Z" fill="#aedbc2" stroke="#aedbc2" stroke-width="1.51"/><path d="M531,594L385,733L605,784Z" fill="#71b9bd" stroke="#71b9bd" stroke-width="1.51"/><path d="M605,784L546,1000L774,862Z" fill="#5c9fb8" stroke="#5c9fb8" stroke-width="1.51"/><path d="M436,338L342,572L531,594Z" fill="#86ccbd" stroke="#86ccbd" stroke-width="1.51"/><path d="M211,377L342,572L436,338Z" fill="#9bd5ba" stroke="#9bd5ba" stroke-width="1.51"/><path d="M342,572L385,733L531,594Z" fill="#81c3bd" stroke="#81c3bd" stroke-width="1.51"/><path d="M1278,1285L1347,1149L1081,1091Z" fill="#2e67ac" stroke="#2e67ac" stroke-width="1.51"/><path d="M385,733L546,1000L605,784Z" fill="#6eaab9" stroke="#6eaab9" stroke-width="1.51"/><path d="M1729,360L1802,84L1579,145Z" fill="#7493ae" stroke="#7493ae" stroke-width="1.51"/><path d="M1763,523L1859,342L1729,360Z" fill="#5182ae" stroke="#5182ae" stroke-width="1.51"/><path d="M1859,563L1859,342L1763,523Z" fill="#487cae" stroke="#487cae" stroke-width="1.51"/><path d="M1874,878L1859,563L1670,705Z" fill="#2e6cae" stroke="#2e6cae" stroke-width="1.51"/><path d="M897,1147L942,1246L1081,1091Z" fill="#3d76ae" stroke="#3d76ae" stroke-width="1.51"/><path d="M546,1000L732,1150L774,862Z" fill="#5890b2" stroke="#5890b2" stroke-width="1.51"/><path d="M1888,197L1802,84L1729,360Z" fill="#718bab" stroke="#718bab" stroke-width="1.51"/><path d="M1563,979L1739,976L1597,773Z" fill="#2463ab" stroke="#2463ab" stroke-width="1.51"/><path d="M1347,1149L1499,1131L1312,909Z" fill="#2766ac" stroke="#2766ac" stroke-width="1.51"/><path d="M1493,-100L1539,-309L1326,-171Z" fill="#9db4bb" stroke="#9db4bb" stroke-width="1.51"/><path d="M1326,-171L1539,-309L1102,-217Z" fill="#a0c0c3" stroke="#a0c0c3" stroke-width="1.51"/><path d="M1802,84L1703,-97L1579,145Z" fill="#899bad" stroke="#899bad" stroke-width="1.51"/><path d="M771,1343L942,1246L897,1147Z" fill="#4573a4" stroke="#4573a4" stroke-width="1.51"/><path d="M1347,1149L1506,1297L1499,1131Z" fill="#2955a4" stroke="#2955a4" stroke-width="1.51"/><path d="M1885,-309L1673,-180L1703,-97Z" fill="#9a9db1" stroke="#9a9db1" stroke-width="1.51"/><path d="M1859,342L1888,197L1729,360Z" fill="#6185ab" stroke="#6185ab" stroke-width="1.51"/><path d="M2172,339L1888,197L1859,342Z" fill="#607ca2" stroke="#607ca2" stroke-width="1.51"/><path d="M1703,-97L1673,-180L1493,-100Z" fill="#99a5af" stroke="#99a5af" stroke-width="1.51"/><path d="M1102,-217L1539,-309L948,-241Z" fill="#a4cac7" stroke="#a4cac7" stroke-width="1.51"/><path d="M948,-241L1539,-309L792,-258Z" fill="#a7d1c8" stroke="#a7d1c8" stroke-width="1.51"/><path d="M1916,-41L1703,-97L1802,84Z" fill="#8f94a9" stroke="#8f94a9" stroke-width="1.51"/><path d="M1707,1197L1739,976L1563,979Z" fill="#2552a2" stroke="#2552a2" stroke-width="1.51"/><path d="M546,1000L500,1068L732,1150Z" fill="#638cae" stroke="#638cae" stroke-width="1.51"/><path d="M1084,1544L1153,1372L923,1549Z" fill="#29608c" stroke="#29608c" stroke-width="1.51"/><path d="M306,903L500,1068L546,1000Z" fill="#759ab1" stroke="#759ab1" stroke-width="1.51"/><path d="M512,-34L380,-79L390,204Z" fill="#c3e7b5" stroke="#c3e7b5" stroke-width="1.51"/><path d="M390,204L211,377L436,338Z" fill="#a6dbb8" stroke="#a6dbb8" stroke-width="1.51"/><path d="M508,-236L380,-79L512,-34Z" fill="#cceab4" stroke="#cceab4" stroke-width="1.51"/><path d="M155,107L211,377L390,204Z" fill="#b8e3b6" stroke="#b8e3b6" stroke-width="1.51"/><path d="M154,758L306,903L385,733Z" fill="#8ab8ba" stroke="#8ab8ba" stroke-width="1.51"/><path d="M385,733L306,903L546,1000Z" fill="#7ba9b6" stroke="#7ba9b6" stroke-width="1.51"/><path d="M1673,-180L1539,-309L1493,-100Z" fill="#9babb7" stroke="#9babb7" stroke-width="1.51"/><path d="M792,-258L508,-236L755,-34Z" fill="#bae2bc" stroke="#bae2bc" stroke-width="1.51"/><path d="M1153,1372L1278,1285L1081,1091Z" fill="#2f64a3" stroke="#2f64a3" stroke-width="1.51"/><path d="M1499,1131L1707,1197L1563,979Z" fill="#2552a3" stroke="#2552a3" stroke-width="1.51"/><path d="M154,758L385,733L342,572Z" fill="#8cc3bc" stroke="#8cc3bc" stroke-width="1.51"/><path d="M1739,976L1874,878L1670,705Z" fill="#2861aa" stroke="#2861aa" stroke-width="1.51"/><path d="M1859,563L2098,611L1859,342Z" fill="#4374a9" stroke="#4374a9" stroke-width="1.51"/><path d="M211,377L148,478L342,572Z" fill="#9dd5bb" stroke="#9dd5bb" stroke-width="1.51"/><path d="M45,299L148,478L211,377Z" fill="#acdcb8" stroke="#acdcb8" stroke-width="1.51"/><path d="M1278,1285L1506,1297L1347,1149Z" fill="#27579f" stroke="#27579f" stroke-width="1.51"/><path d="M942,1246L1153,1372L1081,1091Z" fill="#376ca6" stroke="#376ca6" stroke-width="1.51"/><path d="M771,1343L897,1147L732,1150Z" fill="#4e78a8" stroke="#4e78a8" stroke-width="1.51"/><path d="M1874,878L1998,701L1859,563Z" fill="#3066ab" stroke="#3066ab" stroke-width="1.51"/><path d="M1673,-180L1885,-309L1539,-309Z" fill="#9ca1b9" stroke="#9ca1b9" stroke-width="1.51"/><path d="M1888,197L1916,-41L1802,84Z" fill="#868da8" stroke="#868da8" stroke-width="1.51"/><path d="M2132,80L1916,-41L1888,197Z" fill="#81879f" stroke="#81879f" stroke-width="1.51"/><path d="M508,1320L771,1343L732,1150Z" fill="#55789e" stroke="#55789e" stroke-width="1.51"/><path d="M508,1320L732,1150L500,1068Z" fill="#6682aa" stroke="#6682aa" stroke-width="1.51"/><path d="M380,-79L155,107L390,204Z" fill="#caeab4" stroke="#caeab4" stroke-width="1.51"/><path d="M508,-236L425,-284L380,-79Z" fill="#d3edbc" stroke="#d3edbc" stroke-width="1.51"/><path d="M792,-258L425,-284L508,-236Z" fill="#c6e8c3" stroke="#c6e8c3" stroke-width="1.51"/><path d="M1539,-309L425,-284L792,-258Z" fill="#aedbca" stroke="#aedbca" stroke-width="1.51"/><path d="M1414,1462L1506,1297L1278,1285Z" fill="#1e4f90" stroke="#1e4f90" stroke-width="1.51"/><path d="M1739,976L1935,1137L1874,878Z" fill="#264b9f" stroke="#264b9f" stroke-width="1.51"/><path d="M306,903L389,1110L500,1068Z" fill="#7b99ae" stroke="#7b99ae" stroke-width="1.51"/><path d="M174,-55L155,107L380,-79Z" fill="#d7efb3" stroke="#d7efb3" stroke-width="1.51"/><path d="M148,478L154,758L342,572Z" fill="#95ccbc" stroke="#95ccbc" stroke-width="1.51"/><path d="M306,903L178,1133L389,1110Z" fill="#869aad" stroke="#869aad" stroke-width="1.51"/><path d="M2124,794L2098,611L1998,701Z" fill="#295f9a" stroke="#295f9a" stroke-width="1.51"/><path d="M1506,1297L1707,1197L1499,1131Z" fill="#254a9d" stroke="#254a9d" stroke-width="1.51"/><path d="M204,-190L174,-55L380,-79Z" fill="#def2b2" stroke="#def2b2" stroke-width="1.51"/><path d="M1998,701L2098,611L1859,563Z" fill="#3469a4" stroke="#3469a4" stroke-width="1.51"/><path d="M2124,794L1998,701L1874,878Z" fill="#275a9f" stroke="#275a9f" stroke-width="1.51"/><path d="M155,107L45,299L211,377Z" fill="#bbe3b6" stroke="#bbe3b6" stroke-width="1.51"/><path d="M148,478L21,746L154,758Z" fill="#9bc9bb" stroke="#9bc9bb" stroke-width="1.51"/><path d="M41,187L45,299L155,107Z" fill="#c8e9b5" stroke="#c8e9b5" stroke-width="1.51"/><path d="M21,746L132,874L154,758Z" fill="#96bdb9" stroke="#96bdb9" stroke-width="1.51"/><path d="M154,758L132,874L306,903Z" fill="#8fb4b7" stroke="#8fb4b7" stroke-width="1.51"/><path d="M399,1348L508,1320L389,1110Z" fill="#72819e" stroke="#72819e" stroke-width="1.51"/><path d="M389,1110L508,1320L500,1068Z" fill="#7488a9" stroke="#7488a9" stroke-width="1.51"/><path d="M-8,6L41,187L155,107Z" fill="#d7efb3" stroke="#d7efb3" stroke-width="1.51"/><path d="M174,-55L-8,6L155,107Z" fill="#dcf1b3" stroke="#dcf1b3" stroke-width="1.51"/><path d="M425,-284L204,-190L380,-79Z" fill="#dcf1b8" stroke="#dcf1b8" stroke-width="1.51"/><path d="M1506,1297L1712,1385L1707,1197Z" fill="#1f408f" stroke="#1f408f" stroke-width="1.51"/><path d="M1153,1372L1414,1462L1278,1285Z" fill="#1e5690" stroke="#1e5690" stroke-width="1.51"/><path d="M1084,1544L1414,1462L1153,1372Z" fill="#1f588b" stroke="#1f588b" stroke-width="1.51"/><path d="M1153,1372L942,1246L923,1549Z" fill="#2d6590" stroke="#2d6590" stroke-width="1.51"/><path d="M2085,-71L1885,-309L1916,-41Z" fill="#948ea2" stroke="#948ea2" stroke-width="1.51"/><path d="M1916,-41L1885,-309L1703,-97Z" fill="#9996ab" stroke="#9996ab" stroke-width="1.51"/><path d="M2098,611L2172,339L1859,342Z" fill="#48729d" stroke="#48729d" stroke-width="1.51"/><path d="M178,1133L399,1348L389,1110Z" fill="#848aa7" stroke="#848aa7" stroke-width="1.51"/><path d="M-68,555L21,746L148,478Z" fill="#a2d1bb" stroke="#a2d1bb" stroke-width="1.51"/><path d="M-68,555L148,478L45,299Z" fill="#acdbb9" stroke="#acdbb9" stroke-width="1.51"/><path d="M2098,611L2310,413L2172,339Z" fill="#3d6a8f" stroke="#3d6a8f" stroke-width="1.51"/><path d="M2166,899L2124,794L1874,878Z" fill="#235196" stroke="#235196" stroke-width="1.51"/><path d="M1707,1197L1935,1137L1739,976Z" fill="#26459c" stroke="#26459c" stroke-width="1.51"/><path d="M2000,1297L1935,1137L1707,1197Z" fill="#243593" stroke="#243593" stroke-width="1.51"/><path d="M2172,339L2132,80L1888,197Z" fill="#6a7d98" stroke="#6a7d98" stroke-width="1.51"/><path d="M923,1549L942,1246L771,1343Z" fill="#396a91" stroke="#396a91" stroke-width="1.51"/><path d="M2132,80L2085,-71L1916,-41Z" fill="#858798" stroke="#858798" stroke-width="1.51"/><path d="M796,1563L923,1549L771,1343Z" fill="#3c698b" stroke="#3c698b" stroke-width="1.51"/><path d="M508,1320L583,1466L771,1343Z" fill="#52738f" stroke="#52738f" stroke-width="1.51"/><path d="M178,1133L306,903L132,874Z" fill="#8ca4b0" stroke="#8ca4b0" stroke-width="1.51"/><path d="M49,955L178,1133L132,874Z" fill="#91a4af" stroke="#91a4af" stroke-width="1.51"/><path d="M1557,1568L1712,1385L1506,1297Z" fill="#163c7f" stroke="#163c7f" stroke-width="1.51"/><path d="M397,1472L583,1466L508,1320Z" fill="#5e7588" stroke="#5e7588" stroke-width="1.51"/><path d="M21,746L49,955L132,874Z" fill="#97b5b6" stroke="#97b5b6" stroke-width="1.51"/><path d="M-151,404L-68,555L45,299Z" fill="#b2debd" stroke="#b2debd" stroke-width="1.51"/><path d="M-251,907L49,955L21,746Z" fill="#9cb6b9" stroke="#9cb6b9" stroke-width="1.51"/><path d="M41,187L-151,404L45,299Z" fill="#bee4b8" stroke="#bee4b8" stroke-width="1.51"/><path d="M-58,-230L-8,6L174,-55Z" fill="#eaf6b1" stroke="#eaf6b1" stroke-width="1.51"/><path d="M583,1466L796,1563L771,1343Z" fill="#466d8a" stroke="#466d8a" stroke-width="1.51"/><path d="M923,1549L796,1563L1084,1544Z" fill="#31668c" stroke="#31668c" stroke-width="1.51"/><path d="M2124,794L2266,751L2098,611Z" fill="#225a91" stroke="#225a91" stroke-width="1.51"/><path d="M1935,1137L2166,899L1874,878Z" fill="#224696" stroke="#224696" stroke-width="1.51"/><path d="M2096,1173L2166,899L1935,1137Z" fill="#1f3a8a" stroke="#1f3a8a" stroke-width="1.51"/><path d="M-240,83L-151,404L41,187Z" fill="#cceabd" stroke="#cceabd" stroke-width="1.51"/><path d="M-68,555L-154,693L21,746Z" fill="#a3ccc0" stroke="#a3ccc0" stroke-width="1.51"/><path d="M2166,899L2266,751L2124,794Z" fill="#1c508b" stroke="#1c508b" stroke-width="1.51"/><path d="M2172,339L2391,182L2132,80Z" fill="#617588" stroke="#617588" stroke-width="1.51"/><path d="M2329,-103L2089,-297L2085,-71Z" fill="#87848f" stroke="#87848f" stroke-width="1.51"/><path d="M2389,572L2310,413L2098,611Z" fill="#2f668d" stroke="#2f668d" stroke-width="1.51"/><path d="M1414,1462L1557,1568L1506,1297Z" fill="#184483" stroke="#184483" stroke-width="1.51"/><path d="M2000,1297L2096,1173L1935,1137Z" fill="#202f89" stroke="#202f89" stroke-width="1.51"/><path d="M1084,1544L1557,1568L1414,1462Z" fill="#1a4f88" stroke="#1a4f88" stroke-width="1.51"/><path d="M796,1563L1557,1568L1084,1544Z" fill="#245b8c" stroke="#245b8c" stroke-width="1.51"/><path d="M165,1379L399,1348L178,1133Z" fill="#818599" stroke="#818599" stroke-width="1.51"/><path d="M165,1379L397,1472L399,1348Z" fill="#727c89" stroke="#727c89" stroke-width="1.51"/><path d="M399,1348L397,1472L508,1320Z" fill="#67798d" stroke="#67798d" stroke-width="1.51"/><path d="M583,1466L397,1472L796,1563Z" fill="#537189" stroke="#537189" stroke-width="1.51"/><path d="M2329,-103L2085,-71L2132,80Z" fill="#7e818b" stroke="#7e818b" stroke-width="1.51"/><path d="M2085,-71L2089,-297L1885,-309Z" fill="#938da4" stroke="#938da4" stroke-width="1.51"/><path d="M-151,404L-166,575L-68,555Z" fill="#acdac4" stroke="#acdac4" stroke-width="1.51"/><path d="M-166,575L-154,693L-68,555Z" fill="#a6d2c4" stroke="#a6d2c4" stroke-width="1.51"/><path d="M49,955L1,1139L178,1133Z" fill="#949bab" stroke="#949bab" stroke-width="1.51"/><path d="M2000,1297L1707,1197L1712,1385Z" fill="#1f3689" stroke="#1f3689" stroke-width="1.51"/><path d="M2166,899L2272,905L2266,751Z" fill="#194a86" stroke="#194a86" stroke-width="1.51"/><path d="M1961,1505L2000,1297L1712,1385Z" fill="#182a78" stroke="#182a78" stroke-width="1.51"/><path d="M2266,751L2389,572L2098,611Z" fill="#255d8c" stroke="#255d8c" stroke-width="1.51"/><path d="M2269,1146L2272,905L2166,899Z" fill="#163c7e" stroke="#163c7e" stroke-width="1.51"/><path d="M-251,907L1,1139L49,955Z" fill="#9aa6b3" stroke="#9aa6b3" stroke-width="1.51"/><path d="M1557,1568L1717,1560L1712,1385Z" fill="#17387d" stroke="#17387d" stroke-width="1.51"/><path d="M204,-190L-58,-230L174,-55Z" fill="#eaf6b5" stroke="#eaf6b5" stroke-width="1.51"/><path d="M-8,6L-240,83L41,187Z" fill="#def2b8" stroke="#def2b8" stroke-width="1.51"/><path d="M425,-284L-58,-230L204,-190Z" fill="#e8f6bd" stroke="#e8f6bd" stroke-width="1.51"/><path d="M-19,1344L165,1379L178,1133Z" fill="#898899" stroke="#898899" stroke-width="1.51"/><path d="M2272,905L2389,572L2266,751Z" fill="#1c568a" stroke="#1c568a" stroke-width="1.51"/><path d="M2310,413L2391,182L2172,339Z" fill="#4e7089" stroke="#4e7089" stroke-width="1.51"/><path d="M2389,572L2391,182L2310,413Z" fill="#446c8a" stroke="#446c8a" stroke-width="1.51"/><path d="M2391,182L2329,-103L2132,80Z" fill="#757c86" stroke="#757c86" stroke-width="1.51"/><path d="M-151,404L-240,83L-166,575Z" fill="#bce3c3" stroke="#bce3c3" stroke-width="1.51"/><path d="M-166,575L-251,907L-154,693Z" fill="#a3c8c7" stroke="#a3c8c7" stroke-width="1.51"/><path d="M-275,-22L-240,83L-8,6Z" fill="#e7f5be" stroke="#e7f5be" stroke-width="1.51"/><path d="M1961,1505L2110,1356L2000,1297Z" fill="#14256e" stroke="#14256e" stroke-width="1.51"/><path d="M2000,1297L2110,1356L2096,1173Z" fill="#192a79" stroke="#192a79" stroke-width="1.51"/><path d="M2096,1173L2269,1146L2166,899Z" fill="#19357f" stroke="#19357f" stroke-width="1.51"/><path d="M2110,1356L2269,1146L2096,1173Z" fill="#182978" stroke="#182978" stroke-width="1.51"/><path d="M2272,905L2374,1354L2389,572Z" fill="#174081" stroke="#174081" stroke-width="1.51"/><path d="M1717,1560L1961,1505L1712,1385Z" fill="#172f79" stroke="#172f79" stroke-width="1.51"/><path d="M-154,693L-251,907L21,746Z" fill="#9fc1c2" stroke="#9fc1c2" stroke-width="1.51"/><path d="M1,1139L-19,1344L178,1133Z" fill="#948ea4" stroke="#948ea4" stroke-width="1.51"/><path d="M-240,83L-251,907L-166,575Z" fill="#addac9" stroke="#addac9" stroke-width="1.51"/><path d="M-240,83L-275,-22L-251,907Z" fill="#c0e6c7" stroke="#c0e6c7" stroke-width="1.51"/><path d="M-58,-230L-275,-22L-8,6Z" fill="#eef9b9" stroke="#eef9b9" stroke-width="1.51"/><path d="M-255,1136L-19,1344L1,1139Z" fill="#9890aa" stroke="#9890aa" stroke-width="1.51"/><path d="M165,1379L127,1506L397,1472Z" fill="#767d87" stroke="#767d87" stroke-width="1.51"/><path d="M55,1489L127,1506L165,1379Z" fill="#7d7f86" stroke="#7d7f86" stroke-width="1.51"/><path d="M397,1472L127,1506L796,1563Z" fill="#647788" stroke="#647788" stroke-width="1.51"/><path d="M-19,1344L55,1489L165,1379Z" fill="#808188" stroke="#808188" stroke-width="1.51"/><path d="M-201,1498L55,1489L-19,1344Z" fill="#84828a" stroke="#84828a" stroke-width="1.51"/><path d="M2391,182L2379,-259L2329,-103Z" fill="#7e8086" stroke="#7e8086" stroke-width="1.51"/><path d="M2329,-103L2379,-259L2089,-297Z" fill="#86838e" stroke="#86838e" stroke-width="1.51"/><path d="M-58,-230L-221,-286L-275,-22Z" fill="#f5fbc4" stroke="#f5fbc4" stroke-width="1.51"/><path d="M425,-284L-221,-286L-58,-230Z" fill="#f2fabe" stroke="#f2fabe" stroke-width="1.51"/><path d="M1539,-309L-221,-286L425,-284Z" fill="#c7e9c5" stroke="#c7e9c5" stroke-width="1.51"/><path d="M-275,-22L-255,1136L-251,907Z" fill="#a7cdcb" stroke="#a7cdcb" stroke-width="1.51"/><path d="M-251,907L-255,1136L1,1139Z" fill="#9ba0b6" stroke="#9ba0b6" stroke-width="1.51"/><path d="M1717,1560L2117,1543L1961,1505Z" fill="#162773" stroke="#162773" stroke-width="1.51"/><path d="M1961,1505L2117,1543L2110,1356Z" fill="#102367" stroke="#102367" stroke-width="1.51"/><path d="M2110,1356L2374,1354L2269,1146Z" fill="#112369" stroke="#112369" stroke-width="1.51"/><path d="M1557,1568L2117,1543L1717,1560Z" fill="#172f79" stroke="#172f79" stroke-width="1.51"/><path d="M2299,1475L2374,1354L2110,1356Z" fill="#091e5a" stroke="#091e5a" stroke-width="1.51"/><path d="M2269,1146L2374,1354L2272,905Z" fill="#172e78" stroke="#172e78" stroke-width="1.51"/><path d="M2117,1543L2299,1475L2110,1356Z" fill="#0a1e5c" stroke="#0a1e5c" stroke-width="1.51"/><path d="M-255,1136L-225,1380L-19,1344Z" fill="#928ba3" stroke="#928ba3" stroke-width="1.51"/><path d="M-225,1380L-201,1498L-19,1344Z" fill="#878490" stroke="#878490" stroke-width="1.51"/><path d="M55,1489L-201,1498L127,1506Z" fill="#838187" stroke="#838187" stroke-width="1.51"/><path d="M127,1506L-201,1498L796,1563Z" fill="#767d87" stroke="#767d87" stroke-width="1.51"/></svg>